<?xml version="1.0" encoding="UTF-8" standalone="no"?>
<svg
   xmlns:dc="http://purl.org/dc/elements/1.1/"
   xmlns:cc="http://creativecommons.org/ns#"
   xmlns:rdf="http://www.w3.org/1999/02/22-rdf-syntax-ns#"
   xmlns:svg="http://www.w3.org/2000/svg"
   xmlns="http://www.w3.org/2000/svg"
   xmlns:sodipodi="http://sodipodi.sourceforge.net/DTD/sodipodi-0.dtd"
   xmlns:inkscape="http://www.inkscape.org/namespaces/inkscape"
   sodipodi:docname="markwon-icon-foreground-stroked.svg"
   inkscape:export-ydpi="89.93"
   inkscape:export-xdpi="89.93"
   inkscape:export-filename="/Users/di/text4169.png"
   inkscape:version="1.0beta2 (2b71d25, 2019-12-03)"
   version="1.1"
   id="svg2"
   viewBox="0 0 512.00001 512.00001"
   height="512"
   width="512">
  <defs
     id="defs4" />
  <sodipodi:namedview
     inkscape:document-rotation="0"
     inkscape:window-maximized="0"
     inkscape:window-y="23"
     inkscape:window-x="0"
     inkscape:window-height="788"
     inkscape:window-width="1440"
     units="px"
     showgrid="false"
     inkscape:current-layer="layer1"
     inkscape:document-units="px"
     inkscape:cy="237.21893"
     inkscape:cx="151.88384"
     inkscape:zoom="0.92578125"
     inkscape:pageshadow="2"
     inkscape:pageopacity="0.0"
     borderopacity="1.0"
     bordercolor="#666666"
     pagecolor="#ffffff"
     id="base" />
  <metadata
     id="metadata7">
    <rdf:RDF>
      <cc:Work
         rdf:about="">
        <dc:format>image/svg+xml</dc:format>
        <dc:type
           rdf:resource="http://purl.org/dc/dcmitype/StillImage" />
        <dc:title></dc:title>
      </cc:Work>
    </rdf:RDF>
  </metadata>
  <g
     transform="translate(0,-540.36216)"
     id="layer1"
     inkscape:groupmode="layer"
     inkscape:label="Layer 1">
    <g
       style="font-style:normal;font-weight:normal;line-height:0%;font-family:sans-serif;letter-spacing:0px;word-spacing:0px;fill:#000000;fill-opacity:1;stroke:none;stroke-width:1px;stroke-linecap:butt;stroke-linejoin:miter;stroke-opacity:1"
       id="text4136"
       aria-label="M">
      <path
         id="path26"
         style="font-style:normal;font-variant:normal;font-weight:bold;font-stretch:normal;font-size:314.719px;line-height:1.25;font-family:'Noto Serif';-inkscape-font-specification:'Noto Serif Bold'"
         d="m 296.33892,908.6958 v -16.75018 h 3.07342 q 4.91749,0 8.6056,-0.61469 3.84179,-0.61468 6.30053,-2.45874 2.45874,-1.84405 3.68811,-5.22482 1.22937,-3.53445 1.22937,-9.22029 V 715.06986 L 255.76967,908.6958 H 234.40935 L 167.86964,715.06986 v 156.43747 q 0,6.76154 1.53671,10.75699 1.69039,3.99546 4.61014,6.14686 3.07343,2.1514 7.37623,2.91975 4.3028,0.61469 9.83497,0.61469 h 1.84406 v 16.75018 h -78.06507 v -16.75018 h 13.21574 q 3.38077,0 6.30053,-0.61469 2.91975,-0.61468 5.07115,-2.45874 2.30507,-1.99773 3.53445,-5.68584 1.22937,-3.84178 1.22937,-9.98864 V 719.83367 q 0,-6.30053 -1.22937,-9.98864 -1.22938,-3.84178 -3.53445,-5.83951 -2.1514,-1.99773 -5.07115,-2.61242 -2.91976,-0.76835 -6.30053,-0.76835 h -13.21574 v -16.59651 h 90.66612 l 52.24827,151.981 50.09687,-151.981 h 88.97573 v 16.59651 h -13.21574 q -3.38077,0 -6.30052,0.76835 -2.91976,0.61469 -5.07116,2.76609 -2.1514,2.1514 -3.38077,6.14685 -1.22937,3.99546 -1.22937,10.757 v 150.44429 q 0,6.76154 1.22937,10.75699 1.22937,3.99546 3.38077,6.14686 2.1514,2.1514 5.07116,2.91975 2.91975,0.61469 6.30052,0.61469 h 13.21574 v 16.75018 z" />
    </g>
    <g
       style="font-style:normal;font-weight:normal;line-height:0%;font-family:sans-serif;letter-spacing:0px;word-spacing:0px;fill:#666666;fill-opacity:1;stroke:none;stroke-width:1px;stroke-linecap:butt;stroke-linejoin:miter;stroke-opacity:1"
       id="text4140"
       aria-label="**">
      <path
         id="path21"
         style="font-style:normal;font-variant:normal;font-weight:normal;font-stretch:normal;font-size:293.75px;line-height:1.25;font-family:'Noto Serif';-inkscape-font-specification:'Noto Serif';fill:#666666"
         d="m 122.03394,598.57965 10.32715,-23.23608 45.18128,28.54309 -7.60193,-46.6156 h 25.531 l -8.17566,46.32873 45.46814,-27.53906 10.32715,22.80579 -49.62768,14.48669 49.62768,14.34326 -10.32715,22.66236 -45.46814,-27.39563 8.17566,46.47216 h -25.531 l 7.31506,-46.47216 -44.89441,27.96936 -10.32715,-22.94922 49.34082,-14.63013 z" />
      <path
         id="path23"
         style="font-style:normal;font-variant:normal;font-weight:normal;font-stretch:normal;font-size:293.75px;line-height:1.25;font-family:'Noto Serif';-inkscape-font-specification:'Noto Serif';fill:#666666"
         d="m 268.90894,598.57965 10.32715,-23.23608 45.18128,28.54309 -7.60193,-46.6156 h 25.531 l -8.17566,46.32873 45.46814,-27.53906 10.32715,22.80579 -49.62768,14.48669 49.62768,14.34326 -10.32715,22.66236 -45.46814,-27.39563 8.17566,46.47216 h -25.531 l 7.31506,-46.47216 -44.89441,27.96936 -10.32715,-22.94922 49.34082,-14.63013 z" />
    </g>
    <g
       style="font-style:normal;font-weight:normal;line-height:0%;font-family:sans-serif;letter-spacing:0px;word-spacing:0px;fill:#666666;fill-opacity:1;stroke:none;stroke-width:1px;stroke-linecap:butt;stroke-linejoin:miter;stroke-opacity:1"
       id="text4169"
       aria-label="**">
      <path
         id="path29"
         style="font-style:normal;font-variant:normal;font-weight:normal;font-stretch:normal;font-size:293.75px;line-height:1.25;font-family:'Noto Serif';-inkscape-font-specification:'Noto Serif';fill:#666666"
         d="m 122.03394,968.92297 10.32715,-23.23608 45.18128,28.54309 -7.60193,-46.6156 h 25.531 l -8.17566,46.32874 45.46814,-27.53907 10.32715,22.80579 -49.62768,14.48669 49.62768,14.34326 -10.32715,22.66231 -45.46814,-27.39558 8.17566,46.47218 h -25.531 l 7.31506,-46.47218 -44.89441,27.96938 -10.32715,-22.94924 49.34082,-14.63013 z" />
      <path
         id="path31"
         style="font-style:normal;font-variant:normal;font-weight:normal;font-stretch:normal;font-size:293.75px;line-height:1.25;font-family:'Noto Serif';-inkscape-font-specification:'Noto Serif';fill:#666666"
         d="m 268.90894,968.92297 10.32715,-23.23608 45.18128,28.54309 -7.60193,-46.6156 h 25.531 l -8.17566,46.32874 45.46814,-27.53907 10.32715,22.80579 -49.62768,14.48669 49.62768,14.34326 -10.32715,22.66231 -45.46814,-27.39558 8.17566,46.47218 h -25.531 l 7.31506,-46.47218 -44.89441,27.96938 -10.32715,-22.94924 49.34082,-14.63013 z" />
    </g>
  </g>
</svg>
